<svg width="34" height="24" viewBox="0 0 34 24" fill="none" xmlns="http://www.w3.org/2000/svg">
<path d="M0.922 22.008H3.092C3.38133 22.008 3.57767 21.9563 3.681 21.853C3.78433 21.729 3.836 21.5327 3.836 21.264V2.664C3.836 2.37467 3.78433 2.17833 3.681 2.075C3.57767 1.97167 3.38133 1.92 3.092 1.92H0.922V0.928H18.406L18.654 9.422H17.662C17.662 9.25667 17.5587 8.69867 17.352 7.748C17.1453 6.79733 16.8767 5.981 16.546 5.299C16.112 4.369 15.523 3.57333 14.779 2.912C14.0557 2.25067 13.2393 1.92 12.33 1.92H9.168C8.89933 1.92 8.703 1.97167 8.579 2.075C8.47567 2.17833 8.424 2.37467 8.424 2.664V11.22H10.005C10.563 11.22 11.0797 10.9927 11.555 10.538C12.0303 10.0833 12.4023 9.52533 12.671 8.864C12.9603 8.182 13.105 7.54133 13.105 6.942H14.097V16.645H13.105C13.105 16.025 12.9603 15.3843 12.671 14.723C12.4023 14.041 12.0303 13.4727 11.555 13.018C11.0797 12.5633 10.563 12.336 10.005 12.336H8.424V21.264C8.424 21.5327 8.47567 21.729 8.579 21.853C8.703 21.9563 8.89933 22.008 9.168 22.008H11.989V23H0.922V22.008ZM24.676 23.558C23.6633 23.558 22.7333 23.3513 21.886 22.938C21.0593 22.5247 20.398 21.9253 19.902 21.14C19.406 20.334 19.158 19.3627 19.158 18.226C19.158 17.5027 19.2923 16.8723 19.561 16.335C19.8297 15.777 20.181 15.3533 20.615 15.064C21.049 14.754 21.4933 14.599 21.948 14.599C22.6093 14.599 23.1363 14.816 23.529 15.25C23.9423 15.6633 24.149 16.1593 24.149 16.738C24.149 17.4407 23.963 18.009 23.591 18.443C23.219 18.8563 22.7747 19.156 22.258 19.342C21.9067 19.466 21.6483 19.6313 21.483 19.838C21.3383 20.024 21.266 20.2927 21.266 20.644C21.266 20.9127 21.39 21.202 21.638 21.512C21.9067 21.822 22.2683 22.0803 22.723 22.287C23.1983 22.473 23.7253 22.566 24.304 22.566C25.8747 22.566 26.66 21.3673 26.66 18.97V2.664C26.66 2.37467 26.6083 2.17833 26.505 2.075C26.4017 1.97167 26.2053 1.92 25.916 1.92H23.436V0.928H33.914V1.92H31.992C31.7233 1.92 31.527 1.97167 31.403 2.075C31.2997 2.17833 31.248 2.37467 31.248 2.664V16.986C31.248 18.3293 30.9277 19.497 30.287 20.489C29.6463 21.481 28.8197 22.2457 27.807 22.783C26.815 23.2997 25.7713 23.558 24.676 23.558Z" fill="#2B2024"/>
</svg>
